# xmcd
#
# Track frame offsets: 
#        150
#        17030
#        31013
#        50125
#        70194
#        86647
#        103840
#        120483
#        138856
#        158472
#        176883
#        191189
#        208999
#        224633
#        247017
#        265615
#        278863
#        294870
#        310728
#        331044
#
# Disc length: 4647 seconds
#
# Revision: 0
# Processed by: cddbd v1.5.2PL0 Copyright (c) Steve Scherf et al.
# Submitted via: ExactAudioCopy v1.0b3
#
DISCID=28122514
DTITLE=Яхонт - 20 лет
DYEAR=2013
DGENRE=Chanson
TTITLE0=Дундари
TTITLE1=Бирюзовые колечки
TTITLE2=Ах, зачем эта ночь
TTITLE3=Чёрный ворон
TTITLE4=Заново начать
TTITLE5=Мой Красноярск
TTITLE6=Океан
TTITLE7=Налей
TTITLE8=Самая желанная
TTITLE9=Облака
TTITLE10=Ночка луговая
TTITLE11=Хатанга
TTITLE12=Возвращаются друзья
TTITLE13=Атаман
TTITLE14=Всё у нас получится
TTITLE15=Фонари
TTITLE16=Далеко
TTITLE17=Догуляем
TTITLE18=Ой, то не вечер
TTITLE19=До свидания
EXTD=
EXTT0=
EXTT1=
EXTT2=
EXTT3=
EXTT4=
EXTT5=
EXTT6=
EXTT7=
EXTT8=
EXTT9=
EXTT10=
EXTT11=
EXTT12=
EXTT13=
EXTT14=
EXTT15=
EXTT16=
EXTT17=
EXTT18=
EXTT19=
PLAYORDER=
